<?xml version="1.0" standalone="no"?><!DOCTYPE svg PUBLIC "-//W3C//DTD SVG 1.1//EN" "http://www.w3.org/Graphics/SVG/1.1/DTD/svg11.dtd"><svg t="1574766854643" class="icon" viewBox="0 0 1024 1024" version="1.1" xmlns="http://www.w3.org/2000/svg" p-id="2317" xmlns:xlink="http://www.w3.org/1999/xlink" width="32" height="32"><defs><style type="text/css"></style></defs><path d="M888.32 242.688L619.52 512l269.312 269.312c29.696 29.696 29.696 77.312 0 108.032-29.696 29.696-77.312 29.696-108.032 0L512 620.032l-269.312 269.312c-30.208 28.672-78.336 28.16-108.032-2.56-28.16-29.696-28.16-75.776 0-105.472L403.968 512 135.168 242.688c-28.672-30.208-28.16-78.336 2.56-108.032 29.696-28.16 75.776-28.16 105.472 0L512 403.968l269.312-269.312c29.696-29.696 77.312-29.696 108.032 0 29.184 30.72 29.184 78.336-1.024 108.032" fill="#212121" p-id="2318"></path></svg>